<mxfile host="app.diagrams.net" agent="Mozilla/5.0 (Windows NT 10.0; Win64; x64) AppleWebKit/537.36 (KHTML, like Gecko) Chrome/128.0.0.0 Safari/537.36 Edg/128.0.0.0" version="24.7.8">
  <diagram id="R2lEEEUBdFMjLlhIrx00" name="Page-1">
    <mxGraphModel dx="1459" dy="951" grid="0" gridSize="10" guides="1" tooltips="1" connect="1" arrows="1" fold="1" page="1" pageScale="1" pageWidth="827" pageHeight="1169" math="0" shadow="0" extFonts="Permanent Marker^https://fonts.googleapis.com/css?family=Permanent+Marker">
      <root>
        <mxCell id="0" />
        <mxCell id="1" parent="0" />
        <mxCell id="C-vyLk0tnHw3VtMMgP7b-2" value="Bookings" style="shape=table;startSize=30;container=1;collapsible=1;childLayout=tableLayout;fixedRows=1;rowLines=0;fontStyle=1;align=center;resizeLast=1;" parent="1" vertex="1">
          <mxGeometry x="440" y="481" width="250" height="160" as="geometry" />
        </mxCell>
        <mxCell id="C-vyLk0tnHw3VtMMgP7b-3" value="" style="shape=partialRectangle;collapsible=0;dropTarget=0;pointerEvents=0;fillColor=none;points=[[0,0.5],[1,0.5]];portConstraint=eastwest;top=0;left=0;right=0;bottom=1;" parent="C-vyLk0tnHw3VtMMgP7b-2" vertex="1">
          <mxGeometry y="30" width="250" height="30" as="geometry" />
        </mxCell>
        <mxCell id="C-vyLk0tnHw3VtMMgP7b-4" value="PK" style="shape=partialRectangle;overflow=hidden;connectable=0;fillColor=none;top=0;left=0;bottom=0;right=0;fontStyle=1;" parent="C-vyLk0tnHw3VtMMgP7b-3" vertex="1">
          <mxGeometry width="30" height="30" as="geometry">
            <mxRectangle width="30" height="30" as="alternateBounds" />
          </mxGeometry>
        </mxCell>
        <mxCell id="C-vyLk0tnHw3VtMMgP7b-5" value="booking_id int NOT NULL " style="shape=partialRectangle;overflow=hidden;connectable=0;fillColor=none;top=0;left=0;bottom=0;right=0;align=left;spacingLeft=6;fontStyle=5;" parent="C-vyLk0tnHw3VtMMgP7b-3" vertex="1">
          <mxGeometry x="30" width="220" height="30" as="geometry">
            <mxRectangle width="220" height="30" as="alternateBounds" />
          </mxGeometry>
        </mxCell>
        <mxCell id="C-vyLk0tnHw3VtMMgP7b-6" value="" style="shape=partialRectangle;collapsible=0;dropTarget=0;pointerEvents=0;fillColor=none;points=[[0,0.5],[1,0.5]];portConstraint=eastwest;top=0;left=0;right=0;bottom=0;" parent="C-vyLk0tnHw3VtMMgP7b-2" vertex="1">
          <mxGeometry y="60" width="250" height="30" as="geometry" />
        </mxCell>
        <mxCell id="C-vyLk0tnHw3VtMMgP7b-7" value="FK1" style="shape=partialRectangle;overflow=hidden;connectable=0;fillColor=none;top=0;left=0;bottom=0;right=0;" parent="C-vyLk0tnHw3VtMMgP7b-6" vertex="1">
          <mxGeometry width="30" height="30" as="geometry">
            <mxRectangle width="30" height="30" as="alternateBounds" />
          </mxGeometry>
        </mxCell>
        <mxCell id="C-vyLk0tnHw3VtMMgP7b-8" value="room_id int NOT NULL" style="shape=partialRectangle;overflow=hidden;connectable=0;fillColor=none;top=0;left=0;bottom=0;right=0;align=left;spacingLeft=6;" parent="C-vyLk0tnHw3VtMMgP7b-6" vertex="1">
          <mxGeometry x="30" width="220" height="30" as="geometry">
            <mxRectangle width="220" height="30" as="alternateBounds" />
          </mxGeometry>
        </mxCell>
        <mxCell id="_iUb4zGrjSc02hXBuHHM-57" value="" style="shape=partialRectangle;collapsible=0;dropTarget=0;pointerEvents=0;fillColor=none;points=[[0,0.5],[1,0.5]];portConstraint=eastwest;top=0;left=0;right=0;bottom=0;" vertex="1" parent="C-vyLk0tnHw3VtMMgP7b-2">
          <mxGeometry y="90" width="250" height="30" as="geometry" />
        </mxCell>
        <mxCell id="_iUb4zGrjSc02hXBuHHM-58" value="FK2" style="shape=partialRectangle;overflow=hidden;connectable=0;fillColor=none;top=0;left=0;bottom=0;right=0;" vertex="1" parent="_iUb4zGrjSc02hXBuHHM-57">
          <mxGeometry width="30" height="30" as="geometry">
            <mxRectangle width="30" height="30" as="alternateBounds" />
          </mxGeometry>
        </mxCell>
        <mxCell id="_iUb4zGrjSc02hXBuHHM-59" value="contact_id int NOT NULL" style="shape=partialRectangle;overflow=hidden;connectable=0;fillColor=none;top=0;left=0;bottom=0;right=0;align=left;spacingLeft=6;" vertex="1" parent="_iUb4zGrjSc02hXBuHHM-57">
          <mxGeometry x="30" width="220" height="30" as="geometry">
            <mxRectangle width="220" height="30" as="alternateBounds" />
          </mxGeometry>
        </mxCell>
        <mxCell id="C-vyLk0tnHw3VtMMgP7b-9" value="" style="shape=partialRectangle;collapsible=0;dropTarget=0;pointerEvents=0;fillColor=none;points=[[0,0.5],[1,0.5]];portConstraint=eastwest;top=0;left=0;right=0;bottom=0;" parent="C-vyLk0tnHw3VtMMgP7b-2" vertex="1">
          <mxGeometry y="120" width="250" height="30" as="geometry" />
        </mxCell>
        <mxCell id="C-vyLk0tnHw3VtMMgP7b-10" value="" style="shape=partialRectangle;overflow=hidden;connectable=0;fillColor=none;top=0;left=0;bottom=0;right=0;" parent="C-vyLk0tnHw3VtMMgP7b-9" vertex="1">
          <mxGeometry width="30" height="30" as="geometry">
            <mxRectangle width="30" height="30" as="alternateBounds" />
          </mxGeometry>
        </mxCell>
        <mxCell id="C-vyLk0tnHw3VtMMgP7b-11" value="order_date date NOT NULL" style="shape=partialRectangle;overflow=hidden;connectable=0;fillColor=none;top=0;left=0;bottom=0;right=0;align=left;spacingLeft=6;" parent="C-vyLk0tnHw3VtMMgP7b-9" vertex="1">
          <mxGeometry x="30" width="220" height="30" as="geometry">
            <mxRectangle width="220" height="30" as="alternateBounds" />
          </mxGeometry>
        </mxCell>
        <mxCell id="C-vyLk0tnHw3VtMMgP7b-13" value="Rooms" style="shape=table;startSize=30;container=1;collapsible=1;childLayout=tableLayout;fixedRows=1;rowLines=0;fontStyle=1;align=center;resizeLast=1;" parent="1" vertex="1">
          <mxGeometry x="45" y="481" width="250" height="160" as="geometry" />
        </mxCell>
        <mxCell id="C-vyLk0tnHw3VtMMgP7b-14" value="" style="shape=partialRectangle;collapsible=0;dropTarget=0;pointerEvents=0;fillColor=none;points=[[0,0.5],[1,0.5]];portConstraint=eastwest;top=0;left=0;right=0;bottom=1;" parent="C-vyLk0tnHw3VtMMgP7b-13" vertex="1">
          <mxGeometry y="30" width="250" height="30" as="geometry" />
        </mxCell>
        <mxCell id="C-vyLk0tnHw3VtMMgP7b-15" value="PK" style="shape=partialRectangle;overflow=hidden;connectable=0;fillColor=none;top=0;left=0;bottom=0;right=0;fontStyle=1;" parent="C-vyLk0tnHw3VtMMgP7b-14" vertex="1">
          <mxGeometry width="30" height="30" as="geometry">
            <mxRectangle width="30" height="30" as="alternateBounds" />
          </mxGeometry>
        </mxCell>
        <mxCell id="C-vyLk0tnHw3VtMMgP7b-16" value="room_id int NOT NULL " style="shape=partialRectangle;overflow=hidden;connectable=0;fillColor=none;top=0;left=0;bottom=0;right=0;align=left;spacingLeft=6;fontStyle=5;" parent="C-vyLk0tnHw3VtMMgP7b-14" vertex="1">
          <mxGeometry x="30" width="220" height="30" as="geometry">
            <mxRectangle width="220" height="30" as="alternateBounds" />
          </mxGeometry>
        </mxCell>
        <mxCell id="C-vyLk0tnHw3VtMMgP7b-17" value="" style="shape=partialRectangle;collapsible=0;dropTarget=0;pointerEvents=0;fillColor=none;points=[[0,0.5],[1,0.5]];portConstraint=eastwest;top=0;left=0;right=0;bottom=0;" parent="C-vyLk0tnHw3VtMMgP7b-13" vertex="1">
          <mxGeometry y="60" width="250" height="30" as="geometry" />
        </mxCell>
        <mxCell id="C-vyLk0tnHw3VtMMgP7b-18" value="FK1" style="shape=partialRectangle;overflow=hidden;connectable=0;fillColor=none;top=0;left=0;bottom=0;right=0;" parent="C-vyLk0tnHw3VtMMgP7b-17" vertex="1">
          <mxGeometry width="30" height="30" as="geometry">
            <mxRectangle width="30" height="30" as="alternateBounds" />
          </mxGeometry>
        </mxCell>
        <mxCell id="C-vyLk0tnHw3VtMMgP7b-19" value="booking_id int NOT NULL" style="shape=partialRectangle;overflow=hidden;connectable=0;fillColor=none;top=0;left=0;bottom=0;right=0;align=left;spacingLeft=6;" parent="C-vyLk0tnHw3VtMMgP7b-17" vertex="1">
          <mxGeometry x="30" width="220" height="30" as="geometry">
            <mxRectangle width="220" height="30" as="alternateBounds" />
          </mxGeometry>
        </mxCell>
        <mxCell id="C-vyLk0tnHw3VtMMgP7b-20" value="" style="shape=partialRectangle;collapsible=0;dropTarget=0;pointerEvents=0;fillColor=none;points=[[0,0.5],[1,0.5]];portConstraint=eastwest;top=0;left=0;right=0;bottom=0;" parent="C-vyLk0tnHw3VtMMgP7b-13" vertex="1">
          <mxGeometry y="90" width="250" height="30" as="geometry" />
        </mxCell>
        <mxCell id="C-vyLk0tnHw3VtMMgP7b-21" value="FK2" style="shape=partialRectangle;overflow=hidden;connectable=0;fillColor=none;top=0;left=0;bottom=0;right=0;" parent="C-vyLk0tnHw3VtMMgP7b-20" vertex="1">
          <mxGeometry width="30" height="30" as="geometry">
            <mxRectangle width="30" height="30" as="alternateBounds" />
          </mxGeometry>
        </mxCell>
        <mxCell id="C-vyLk0tnHw3VtMMgP7b-22" value="customer_id int NOT NULL" style="shape=partialRectangle;overflow=hidden;connectable=0;fillColor=none;top=0;left=0;bottom=0;right=0;align=left;spacingLeft=6;" parent="C-vyLk0tnHw3VtMMgP7b-20" vertex="1">
          <mxGeometry x="30" width="220" height="30" as="geometry">
            <mxRectangle width="220" height="30" as="alternateBounds" />
          </mxGeometry>
        </mxCell>
        <mxCell id="_iUb4zGrjSc02hXBuHHM-50" value="" style="shape=partialRectangle;collapsible=0;dropTarget=0;pointerEvents=0;fillColor=none;points=[[0,0.5],[1,0.5]];portConstraint=eastwest;top=0;left=0;right=0;bottom=0;" vertex="1" parent="C-vyLk0tnHw3VtMMgP7b-13">
          <mxGeometry y="120" width="250" height="30" as="geometry" />
        </mxCell>
        <mxCell id="_iUb4zGrjSc02hXBuHHM-51" value="" style="shape=partialRectangle;overflow=hidden;connectable=0;fillColor=none;top=0;left=0;bottom=0;right=0;" vertex="1" parent="_iUb4zGrjSc02hXBuHHM-50">
          <mxGeometry width="30" height="30" as="geometry">
            <mxRectangle width="30" height="30" as="alternateBounds" />
          </mxGeometry>
        </mxCell>
        <mxCell id="_iUb4zGrjSc02hXBuHHM-52" value="room_occupied bool NOT NULL" style="shape=partialRectangle;overflow=hidden;connectable=0;fillColor=none;top=0;left=0;bottom=0;right=0;align=left;spacingLeft=6;" vertex="1" parent="_iUb4zGrjSc02hXBuHHM-50">
          <mxGeometry x="30" width="220" height="30" as="geometry">
            <mxRectangle width="220" height="30" as="alternateBounds" />
          </mxGeometry>
        </mxCell>
        <mxCell id="C-vyLk0tnHw3VtMMgP7b-23" value="Customers" style="shape=table;startSize=30;container=1;collapsible=1;childLayout=tableLayout;fixedRows=1;rowLines=0;fontStyle=1;align=center;resizeLast=1;" parent="1" vertex="1">
          <mxGeometry x="45" y="772" width="250" height="160" as="geometry" />
        </mxCell>
        <mxCell id="C-vyLk0tnHw3VtMMgP7b-24" value="" style="shape=partialRectangle;collapsible=0;dropTarget=0;pointerEvents=0;fillColor=none;points=[[0,0.5],[1,0.5]];portConstraint=eastwest;top=0;left=0;right=0;bottom=1;" parent="C-vyLk0tnHw3VtMMgP7b-23" vertex="1">
          <mxGeometry y="30" width="250" height="30" as="geometry" />
        </mxCell>
        <mxCell id="C-vyLk0tnHw3VtMMgP7b-25" value="PK" style="shape=partialRectangle;overflow=hidden;connectable=0;fillColor=none;top=0;left=0;bottom=0;right=0;fontStyle=1;" parent="C-vyLk0tnHw3VtMMgP7b-24" vertex="1">
          <mxGeometry width="30" height="30" as="geometry">
            <mxRectangle width="30" height="30" as="alternateBounds" />
          </mxGeometry>
        </mxCell>
        <mxCell id="C-vyLk0tnHw3VtMMgP7b-26" value="customer_id int NOT NULL " style="shape=partialRectangle;overflow=hidden;connectable=0;fillColor=none;top=0;left=0;bottom=0;right=0;align=left;spacingLeft=6;fontStyle=5;" parent="C-vyLk0tnHw3VtMMgP7b-24" vertex="1">
          <mxGeometry x="30" width="220" height="30" as="geometry">
            <mxRectangle width="220" height="30" as="alternateBounds" />
          </mxGeometry>
        </mxCell>
        <mxCell id="C-vyLk0tnHw3VtMMgP7b-27" value="" style="shape=partialRectangle;collapsible=0;dropTarget=0;pointerEvents=0;fillColor=none;points=[[0,0.5],[1,0.5]];portConstraint=eastwest;top=0;left=0;right=0;bottom=0;" parent="C-vyLk0tnHw3VtMMgP7b-23" vertex="1">
          <mxGeometry y="60" width="250" height="30" as="geometry" />
        </mxCell>
        <mxCell id="C-vyLk0tnHw3VtMMgP7b-28" value="FK1" style="shape=partialRectangle;overflow=hidden;connectable=0;fillColor=none;top=0;left=0;bottom=0;right=0;" parent="C-vyLk0tnHw3VtMMgP7b-27" vertex="1">
          <mxGeometry width="30" height="30" as="geometry">
            <mxRectangle width="30" height="30" as="alternateBounds" />
          </mxGeometry>
        </mxCell>
        <mxCell id="C-vyLk0tnHw3VtMMgP7b-29" value="contact_id int NOT NULL" style="shape=partialRectangle;overflow=hidden;connectable=0;fillColor=none;top=0;left=0;bottom=0;right=0;align=left;spacingLeft=6;" parent="C-vyLk0tnHw3VtMMgP7b-27" vertex="1">
          <mxGeometry x="30" width="220" height="30" as="geometry">
            <mxRectangle width="220" height="30" as="alternateBounds" />
          </mxGeometry>
        </mxCell>
        <mxCell id="_iUb4zGrjSc02hXBuHHM-67" value="" style="shape=partialRectangle;collapsible=0;dropTarget=0;pointerEvents=0;fillColor=none;points=[[0,0.5],[1,0.5]];portConstraint=eastwest;top=0;left=0;right=0;bottom=0;" vertex="1" parent="C-vyLk0tnHw3VtMMgP7b-23">
          <mxGeometry y="90" width="250" height="30" as="geometry" />
        </mxCell>
        <mxCell id="_iUb4zGrjSc02hXBuHHM-68" value="FK2" style="shape=partialRectangle;overflow=hidden;connectable=0;fillColor=none;top=0;left=0;bottom=0;right=0;" vertex="1" parent="_iUb4zGrjSc02hXBuHHM-67">
          <mxGeometry width="30" height="30" as="geometry">
            <mxRectangle width="30" height="30" as="alternateBounds" />
          </mxGeometry>
        </mxCell>
        <mxCell id="_iUb4zGrjSc02hXBuHHM-69" value="room_id int NOT NULL" style="shape=partialRectangle;overflow=hidden;connectable=0;fillColor=none;top=0;left=0;bottom=0;right=0;align=left;spacingLeft=6;" vertex="1" parent="_iUb4zGrjSc02hXBuHHM-67">
          <mxGeometry x="30" width="220" height="30" as="geometry">
            <mxRectangle width="220" height="30" as="alternateBounds" />
          </mxGeometry>
        </mxCell>
        <mxCell id="_iUb4zGrjSc02hXBuHHM-70" value="" style="shape=partialRectangle;collapsible=0;dropTarget=0;pointerEvents=0;fillColor=none;points=[[0,0.5],[1,0.5]];portConstraint=eastwest;top=0;left=0;right=0;bottom=0;" vertex="1" parent="C-vyLk0tnHw3VtMMgP7b-23">
          <mxGeometry y="120" width="250" height="30" as="geometry" />
        </mxCell>
        <mxCell id="_iUb4zGrjSc02hXBuHHM-71" value="" style="shape=partialRectangle;overflow=hidden;connectable=0;fillColor=none;top=0;left=0;bottom=0;right=0;" vertex="1" parent="_iUb4zGrjSc02hXBuHHM-70">
          <mxGeometry width="30" height="30" as="geometry">
            <mxRectangle width="30" height="30" as="alternateBounds" />
          </mxGeometry>
        </mxCell>
        <mxCell id="_iUb4zGrjSc02hXBuHHM-72" value="customer_name char(50) NOT NULL" style="shape=partialRectangle;overflow=hidden;connectable=0;fillColor=none;top=0;left=0;bottom=0;right=0;align=left;spacingLeft=6;" vertex="1" parent="_iUb4zGrjSc02hXBuHHM-70">
          <mxGeometry x="30" width="220" height="30" as="geometry">
            <mxRectangle width="220" height="30" as="alternateBounds" />
          </mxGeometry>
        </mxCell>
        <mxCell id="_iUb4zGrjSc02hXBuHHM-1" value="Contact" style="shape=table;startSize=30;container=1;collapsible=1;childLayout=tableLayout;fixedRows=1;rowLines=0;fontStyle=1;align=center;resizeLast=1;" vertex="1" parent="1">
          <mxGeometry x="440" y="772" width="250" height="160" as="geometry" />
        </mxCell>
        <mxCell id="_iUb4zGrjSc02hXBuHHM-2" value="" style="shape=partialRectangle;collapsible=0;dropTarget=0;pointerEvents=0;fillColor=none;points=[[0,0.5],[1,0.5]];portConstraint=eastwest;top=0;left=0;right=0;bottom=1;" vertex="1" parent="_iUb4zGrjSc02hXBuHHM-1">
          <mxGeometry y="30" width="250" height="30" as="geometry" />
        </mxCell>
        <mxCell id="_iUb4zGrjSc02hXBuHHM-3" value="PK" style="shape=partialRectangle;overflow=hidden;connectable=0;fillColor=none;top=0;left=0;bottom=0;right=0;fontStyle=1;" vertex="1" parent="_iUb4zGrjSc02hXBuHHM-2">
          <mxGeometry width="30" height="30" as="geometry">
            <mxRectangle width="30" height="30" as="alternateBounds" />
          </mxGeometry>
        </mxCell>
        <mxCell id="_iUb4zGrjSc02hXBuHHM-4" value="contact_id int NOT NULL " style="shape=partialRectangle;overflow=hidden;connectable=0;fillColor=none;top=0;left=0;bottom=0;right=0;align=left;spacingLeft=6;fontStyle=5;" vertex="1" parent="_iUb4zGrjSc02hXBuHHM-2">
          <mxGeometry x="30" width="220" height="30" as="geometry">
            <mxRectangle width="220" height="30" as="alternateBounds" />
          </mxGeometry>
        </mxCell>
        <mxCell id="_iUb4zGrjSc02hXBuHHM-5" value="" style="shape=partialRectangle;collapsible=0;dropTarget=0;pointerEvents=0;fillColor=none;points=[[0,0.5],[1,0.5]];portConstraint=eastwest;top=0;left=0;right=0;bottom=0;" vertex="1" parent="_iUb4zGrjSc02hXBuHHM-1">
          <mxGeometry y="60" width="250" height="30" as="geometry" />
        </mxCell>
        <mxCell id="_iUb4zGrjSc02hXBuHHM-6" value="FK1" style="shape=partialRectangle;overflow=hidden;connectable=0;fillColor=none;top=0;left=0;bottom=0;right=0;" vertex="1" parent="_iUb4zGrjSc02hXBuHHM-5">
          <mxGeometry width="30" height="30" as="geometry">
            <mxRectangle width="30" height="30" as="alternateBounds" />
          </mxGeometry>
        </mxCell>
        <mxCell id="_iUb4zGrjSc02hXBuHHM-7" value="booking_id char(50) NOT NULL" style="shape=partialRectangle;overflow=hidden;connectable=0;fillColor=none;top=0;left=0;bottom=0;right=0;align=left;spacingLeft=6;" vertex="1" parent="_iUb4zGrjSc02hXBuHHM-5">
          <mxGeometry x="30" width="220" height="30" as="geometry">
            <mxRectangle width="220" height="30" as="alternateBounds" />
          </mxGeometry>
        </mxCell>
        <mxCell id="_iUb4zGrjSc02hXBuHHM-60" value="" style="shape=partialRectangle;collapsible=0;dropTarget=0;pointerEvents=0;fillColor=none;points=[[0,0.5],[1,0.5]];portConstraint=eastwest;top=0;left=0;right=0;bottom=0;" vertex="1" parent="_iUb4zGrjSc02hXBuHHM-1">
          <mxGeometry y="90" width="250" height="30" as="geometry" />
        </mxCell>
        <mxCell id="_iUb4zGrjSc02hXBuHHM-61" value="FK2" style="shape=partialRectangle;overflow=hidden;connectable=0;fillColor=none;top=0;left=0;bottom=0;right=0;" vertex="1" parent="_iUb4zGrjSc02hXBuHHM-60">
          <mxGeometry width="30" height="30" as="geometry">
            <mxRectangle width="30" height="30" as="alternateBounds" />
          </mxGeometry>
        </mxCell>
        <mxCell id="_iUb4zGrjSc02hXBuHHM-62" value="customer_id int NOT NULL" style="shape=partialRectangle;overflow=hidden;connectable=0;fillColor=none;top=0;left=0;bottom=0;right=0;align=left;spacingLeft=6;" vertex="1" parent="_iUb4zGrjSc02hXBuHHM-60">
          <mxGeometry x="30" width="220" height="30" as="geometry">
            <mxRectangle width="220" height="30" as="alternateBounds" />
          </mxGeometry>
        </mxCell>
        <mxCell id="_iUb4zGrjSc02hXBuHHM-64" value="" style="shape=partialRectangle;collapsible=0;dropTarget=0;pointerEvents=0;fillColor=none;points=[[0,0.5],[1,0.5]];portConstraint=eastwest;top=0;left=0;right=0;bottom=0;" vertex="1" parent="_iUb4zGrjSc02hXBuHHM-1">
          <mxGeometry y="120" width="250" height="30" as="geometry" />
        </mxCell>
        <mxCell id="_iUb4zGrjSc02hXBuHHM-65" value="" style="shape=partialRectangle;overflow=hidden;connectable=0;fillColor=none;top=0;left=0;bottom=0;right=0;" vertex="1" parent="_iUb4zGrjSc02hXBuHHM-64">
          <mxGeometry width="30" height="30" as="geometry">
            <mxRectangle width="30" height="30" as="alternateBounds" />
          </mxGeometry>
        </mxCell>
        <mxCell id="_iUb4zGrjSc02hXBuHHM-66" value="contact_name char(50) NOT NULL" style="shape=partialRectangle;overflow=hidden;connectable=0;fillColor=none;top=0;left=0;bottom=0;right=0;align=left;spacingLeft=6;" vertex="1" parent="_iUb4zGrjSc02hXBuHHM-64">
          <mxGeometry x="30" width="220" height="30" as="geometry">
            <mxRectangle width="220" height="30" as="alternateBounds" />
          </mxGeometry>
        </mxCell>
        <mxCell id="_iUb4zGrjSc02hXBuHHM-8" value="Hotel" style="shape=table;startSize=30;container=1;collapsible=1;childLayout=tableLayout;fixedRows=1;rowLines=0;fontStyle=1;align=center;resizeLast=1;" vertex="1" parent="1">
          <mxGeometry x="45" y="207" width="250" height="190" as="geometry" />
        </mxCell>
        <mxCell id="_iUb4zGrjSc02hXBuHHM-9" value="" style="shape=partialRectangle;collapsible=0;dropTarget=0;pointerEvents=0;fillColor=none;points=[[0,0.5],[1,0.5]];portConstraint=eastwest;top=0;left=0;right=0;bottom=1;" vertex="1" parent="_iUb4zGrjSc02hXBuHHM-8">
          <mxGeometry y="30" width="250" height="30" as="geometry" />
        </mxCell>
        <mxCell id="_iUb4zGrjSc02hXBuHHM-10" value="PK" style="shape=partialRectangle;overflow=hidden;connectable=0;fillColor=none;top=0;left=0;bottom=0;right=0;fontStyle=1;" vertex="1" parent="_iUb4zGrjSc02hXBuHHM-9">
          <mxGeometry width="30" height="30" as="geometry">
            <mxRectangle width="30" height="30" as="alternateBounds" />
          </mxGeometry>
        </mxCell>
        <mxCell id="_iUb4zGrjSc02hXBuHHM-11" value="hotel_id int NOT NULL " style="shape=partialRectangle;overflow=hidden;connectable=0;fillColor=none;top=0;left=0;bottom=0;right=0;align=left;spacingLeft=6;fontStyle=5;" vertex="1" parent="_iUb4zGrjSc02hXBuHHM-9">
          <mxGeometry x="30" width="220" height="30" as="geometry">
            <mxRectangle width="220" height="30" as="alternateBounds" />
          </mxGeometry>
        </mxCell>
        <mxCell id="_iUb4zGrjSc02hXBuHHM-12" value="" style="shape=partialRectangle;collapsible=0;dropTarget=0;pointerEvents=0;fillColor=none;points=[[0,0.5],[1,0.5]];portConstraint=eastwest;top=0;left=0;right=0;bottom=0;" vertex="1" parent="_iUb4zGrjSc02hXBuHHM-8">
          <mxGeometry y="60" width="250" height="30" as="geometry" />
        </mxCell>
        <mxCell id="_iUb4zGrjSc02hXBuHHM-13" value="FK1" style="shape=partialRectangle;overflow=hidden;connectable=0;fillColor=none;top=0;left=0;bottom=0;right=0;" vertex="1" parent="_iUb4zGrjSc02hXBuHHM-12">
          <mxGeometry width="30" height="30" as="geometry">
            <mxRectangle width="30" height="30" as="alternateBounds" />
          </mxGeometry>
        </mxCell>
        <mxCell id="_iUb4zGrjSc02hXBuHHM-14" value="owner_id int NOT NULL" style="shape=partialRectangle;overflow=hidden;connectable=0;fillColor=none;top=0;left=0;bottom=0;right=0;align=left;spacingLeft=6;" vertex="1" parent="_iUb4zGrjSc02hXBuHHM-12">
          <mxGeometry x="30" width="220" height="30" as="geometry">
            <mxRectangle width="220" height="30" as="alternateBounds" />
          </mxGeometry>
        </mxCell>
        <mxCell id="_iUb4zGrjSc02hXBuHHM-37" value="" style="shape=partialRectangle;collapsible=0;dropTarget=0;pointerEvents=0;fillColor=none;points=[[0,0.5],[1,0.5]];portConstraint=eastwest;top=0;left=0;right=0;bottom=0;" vertex="1" parent="_iUb4zGrjSc02hXBuHHM-8">
          <mxGeometry y="90" width="250" height="30" as="geometry" />
        </mxCell>
        <mxCell id="_iUb4zGrjSc02hXBuHHM-38" value="FK2" style="shape=partialRectangle;overflow=hidden;connectable=0;fillColor=none;top=0;left=0;bottom=0;right=0;" vertex="1" parent="_iUb4zGrjSc02hXBuHHM-37">
          <mxGeometry width="30" height="30" as="geometry">
            <mxRectangle width="30" height="30" as="alternateBounds" />
          </mxGeometry>
        </mxCell>
        <mxCell id="_iUb4zGrjSc02hXBuHHM-39" value="room_id int NOT NULL" style="shape=partialRectangle;overflow=hidden;connectable=0;fillColor=none;top=0;left=0;bottom=0;right=0;align=left;spacingLeft=6;" vertex="1" parent="_iUb4zGrjSc02hXBuHHM-37">
          <mxGeometry x="30" width="220" height="30" as="geometry">
            <mxRectangle width="220" height="30" as="alternateBounds" />
          </mxGeometry>
        </mxCell>
        <mxCell id="_iUb4zGrjSc02hXBuHHM-42" value="" style="shape=partialRectangle;collapsible=0;dropTarget=0;pointerEvents=0;fillColor=none;points=[[0,0.5],[1,0.5]];portConstraint=eastwest;top=0;left=0;right=0;bottom=0;" vertex="1" parent="_iUb4zGrjSc02hXBuHHM-8">
          <mxGeometry y="120" width="250" height="30" as="geometry" />
        </mxCell>
        <mxCell id="_iUb4zGrjSc02hXBuHHM-43" value="FK3" style="shape=partialRectangle;overflow=hidden;connectable=0;fillColor=none;top=0;left=0;bottom=0;right=0;" vertex="1" parent="_iUb4zGrjSc02hXBuHHM-42">
          <mxGeometry width="30" height="30" as="geometry">
            <mxRectangle width="30" height="30" as="alternateBounds" />
          </mxGeometry>
        </mxCell>
        <mxCell id="_iUb4zGrjSc02hXBuHHM-44" value="booking_id int NOT NULL" style="shape=partialRectangle;overflow=hidden;connectable=0;fillColor=none;top=0;left=0;bottom=0;right=0;align=left;spacingLeft=6;" vertex="1" parent="_iUb4zGrjSc02hXBuHHM-42">
          <mxGeometry x="30" width="220" height="30" as="geometry">
            <mxRectangle width="220" height="30" as="alternateBounds" />
          </mxGeometry>
        </mxCell>
        <mxCell id="_iUb4zGrjSc02hXBuHHM-45" value="" style="shape=partialRectangle;collapsible=0;dropTarget=0;pointerEvents=0;fillColor=none;points=[[0,0.5],[1,0.5]];portConstraint=eastwest;top=0;left=0;right=0;bottom=0;" vertex="1" parent="_iUb4zGrjSc02hXBuHHM-8">
          <mxGeometry y="150" width="250" height="30" as="geometry" />
        </mxCell>
        <mxCell id="_iUb4zGrjSc02hXBuHHM-46" value="" style="shape=partialRectangle;overflow=hidden;connectable=0;fillColor=none;top=0;left=0;bottom=0;right=0;" vertex="1" parent="_iUb4zGrjSc02hXBuHHM-45">
          <mxGeometry width="30" height="30" as="geometry">
            <mxRectangle width="30" height="30" as="alternateBounds" />
          </mxGeometry>
        </mxCell>
        <mxCell id="_iUb4zGrjSc02hXBuHHM-47" value="hotel_name char(50) NOT NULL" style="shape=partialRectangle;overflow=hidden;connectable=0;fillColor=none;top=0;left=0;bottom=0;right=0;align=left;spacingLeft=6;" vertex="1" parent="_iUb4zGrjSc02hXBuHHM-45">
          <mxGeometry x="30" width="220" height="30" as="geometry">
            <mxRectangle width="220" height="30" as="alternateBounds" />
          </mxGeometry>
        </mxCell>
        <mxCell id="_iUb4zGrjSc02hXBuHHM-15" value="Owner" style="shape=table;startSize=30;container=1;collapsible=1;childLayout=tableLayout;fixedRows=1;rowLines=0;fontStyle=1;align=center;resizeLast=1;" vertex="1" parent="1">
          <mxGeometry x="45" y="36" width="250" height="100" as="geometry" />
        </mxCell>
        <mxCell id="_iUb4zGrjSc02hXBuHHM-16" value="" style="shape=partialRectangle;collapsible=0;dropTarget=0;pointerEvents=0;fillColor=none;points=[[0,0.5],[1,0.5]];portConstraint=eastwest;top=0;left=0;right=0;bottom=1;" vertex="1" parent="_iUb4zGrjSc02hXBuHHM-15">
          <mxGeometry y="30" width="250" height="30" as="geometry" />
        </mxCell>
        <mxCell id="_iUb4zGrjSc02hXBuHHM-17" value="PK" style="shape=partialRectangle;overflow=hidden;connectable=0;fillColor=none;top=0;left=0;bottom=0;right=0;fontStyle=1;" vertex="1" parent="_iUb4zGrjSc02hXBuHHM-16">
          <mxGeometry width="30" height="30" as="geometry">
            <mxRectangle width="30" height="30" as="alternateBounds" />
          </mxGeometry>
        </mxCell>
        <mxCell id="_iUb4zGrjSc02hXBuHHM-18" value="owner_id int NOT NULL " style="shape=partialRectangle;overflow=hidden;connectable=0;fillColor=none;top=0;left=0;bottom=0;right=0;align=left;spacingLeft=6;fontStyle=5;" vertex="1" parent="_iUb4zGrjSc02hXBuHHM-16">
          <mxGeometry x="30" width="220" height="30" as="geometry">
            <mxRectangle width="220" height="30" as="alternateBounds" />
          </mxGeometry>
        </mxCell>
        <mxCell id="_iUb4zGrjSc02hXBuHHM-19" value="" style="shape=partialRectangle;collapsible=0;dropTarget=0;pointerEvents=0;fillColor=none;points=[[0,0.5],[1,0.5]];portConstraint=eastwest;top=0;left=0;right=0;bottom=0;" vertex="1" parent="_iUb4zGrjSc02hXBuHHM-15">
          <mxGeometry y="60" width="250" height="30" as="geometry" />
        </mxCell>
        <mxCell id="_iUb4zGrjSc02hXBuHHM-20" value="" style="shape=partialRectangle;overflow=hidden;connectable=0;fillColor=none;top=0;left=0;bottom=0;right=0;" vertex="1" parent="_iUb4zGrjSc02hXBuHHM-19">
          <mxGeometry width="30" height="30" as="geometry">
            <mxRectangle width="30" height="30" as="alternateBounds" />
          </mxGeometry>
        </mxCell>
        <mxCell id="_iUb4zGrjSc02hXBuHHM-21" value="owner_name char(50) NOT NULL" style="shape=partialRectangle;overflow=hidden;connectable=0;fillColor=none;top=0;left=0;bottom=0;right=0;align=left;spacingLeft=6;" vertex="1" parent="_iUb4zGrjSc02hXBuHHM-19">
          <mxGeometry x="30" width="220" height="30" as="geometry">
            <mxRectangle width="220" height="30" as="alternateBounds" />
          </mxGeometry>
        </mxCell>
        <mxCell id="_iUb4zGrjSc02hXBuHHM-41" value="" style="edgeStyle=entityRelationEdgeStyle;fontSize=12;html=1;endArrow=ERmandOne;startArrow=ERmandOne;rounded=0;exitX=1;exitY=0.5;exitDx=0;exitDy=0;" edge="1" parent="1" source="_iUb4zGrjSc02hXBuHHM-12" target="_iUb4zGrjSc02hXBuHHM-16">
          <mxGeometry width="100" height="100" relative="1" as="geometry">
            <mxPoint x="300" y="473" as="sourcePoint" />
            <mxPoint x="400" y="373" as="targetPoint" />
          </mxGeometry>
        </mxCell>
        <mxCell id="_iUb4zGrjSc02hXBuHHM-54" value="" style="edgeStyle=entityRelationEdgeStyle;fontSize=12;html=1;endArrow=ERoneToMany;rounded=0;entryX=1;entryY=0.5;entryDx=0;entryDy=0;exitX=1;exitY=0.5;exitDx=0;exitDy=0;" edge="1" parent="1" source="_iUb4zGrjSc02hXBuHHM-37" target="C-vyLk0tnHw3VtMMgP7b-14">
          <mxGeometry width="100" height="100" relative="1" as="geometry">
            <mxPoint x="117" y="503" as="sourcePoint" />
            <mxPoint x="217" y="403" as="targetPoint" />
          </mxGeometry>
        </mxCell>
        <mxCell id="_iUb4zGrjSc02hXBuHHM-56" value="" style="edgeStyle=entityRelationEdgeStyle;fontSize=12;html=1;endArrow=ERzeroToOne;startArrow=ERmandOne;rounded=0;exitX=1;exitY=0.5;exitDx=0;exitDy=0;entryX=0;entryY=0.5;entryDx=0;entryDy=0;" edge="1" parent="1" source="C-vyLk0tnHw3VtMMgP7b-17" target="C-vyLk0tnHw3VtMMgP7b-6">
          <mxGeometry width="100" height="100" relative="1" as="geometry">
            <mxPoint x="338" y="727" as="sourcePoint" />
            <mxPoint x="438" y="627" as="targetPoint" />
          </mxGeometry>
        </mxCell>
        <mxCell id="_iUb4zGrjSc02hXBuHHM-63" value="" style="edgeStyle=entityRelationEdgeStyle;fontSize=12;html=1;endArrow=ERzeroToMany;startArrow=ERmandOne;rounded=0;" edge="1" parent="1" source="_iUb4zGrjSc02hXBuHHM-5" target="_iUb4zGrjSc02hXBuHHM-57">
          <mxGeometry width="100" height="100" relative="1" as="geometry">
            <mxPoint x="338" y="727" as="sourcePoint" />
            <mxPoint x="816" y="566" as="targetPoint" />
          </mxGeometry>
        </mxCell>
        <mxCell id="_iUb4zGrjSc02hXBuHHM-74" value="" style="edgeStyle=entityRelationEdgeStyle;fontSize=12;html=1;endArrow=ERzeroToOne;startArrow=ERmandOne;rounded=0;exitX=1;exitY=0.5;exitDx=0;exitDy=0;entryX=1;entryY=0.5;entryDx=0;entryDy=0;" edge="1" parent="1" source="_iUb4zGrjSc02hXBuHHM-67" target="C-vyLk0tnHw3VtMMgP7b-20">
          <mxGeometry width="100" height="100" relative="1" as="geometry">
            <mxPoint x="305" y="566" as="sourcePoint" />
            <mxPoint x="450" y="566" as="targetPoint" />
          </mxGeometry>
        </mxCell>
        <mxCell id="_iUb4zGrjSc02hXBuHHM-75" value="" style="edgeStyle=entityRelationEdgeStyle;fontSize=12;html=1;endArrow=ERmandOne;startArrow=ERmandOne;rounded=0;exitX=0;exitY=0.5;exitDx=0;exitDy=0;entryX=1;entryY=0.5;entryDx=0;entryDy=0;" edge="1" parent="1" source="_iUb4zGrjSc02hXBuHHM-60" target="C-vyLk0tnHw3VtMMgP7b-27">
          <mxGeometry width="100" height="100" relative="1" as="geometry">
            <mxPoint x="718" y="970" as="sourcePoint" />
            <mxPoint x="323" y="940" as="targetPoint" />
            <Array as="points">
              <mxPoint x="775" y="1068" />
              <mxPoint x="733" y="1044" />
            </Array>
          </mxGeometry>
        </mxCell>
        <mxCell id="_iUb4zGrjSc02hXBuHHM-76" value="" style="edgeStyle=entityRelationEdgeStyle;fontSize=12;html=1;endArrow=ERzeroToMany;startArrow=ERmandOne;rounded=0;exitX=1;exitY=0.5;exitDx=0;exitDy=0;entryX=0;entryY=0.5;entryDx=0;entryDy=0;" edge="1" parent="1" source="_iUb4zGrjSc02hXBuHHM-42" target="C-vyLk0tnHw3VtMMgP7b-3">
          <mxGeometry width="100" height="100" relative="1" as="geometry">
            <mxPoint x="236" y="523" as="sourcePoint" />
            <mxPoint x="336" y="423" as="targetPoint" />
          </mxGeometry>
        </mxCell>
      </root>
    </mxGraphModel>
  </diagram>
</mxfile>
